<svg width="1081" height="1080" viewBox="0 0 1081 1080" fill="none" xmlns="http://www.w3.org/2000/svg">
<path d="M540.038 1006C797.403 1006 1006.04 797.365 1006.04 540C1006.04 282.635 797.403 74 540.038 74C282.673 74 74.0381 282.635 74.0381 540C74.0381 797.365 282.673 1006 540.038 1006Z" fill="white" stroke="#0C043F" stroke-width="60"/>
<path d="M537.992 816.985L610.324 890.369L668.694 831.063L596.434 757.751L537.992 816.985Z" fill="#E61366"/>
<path d="M672.16 680.866L613.69 621.56L537.992 698.43L596.434 757.751L672.16 680.866Z" fill="#E61366"/>
<path d="M407.19 831.063L465.575 890.369L596.434 757.752L465.575 625.062L407.19 684.368L479.579 757.752L407.19 831.063Z" fill="#0C043F"/>
<path d="M233.038 295.459H459.756V362.173H387.892V550.983H304.539V362.173H233.038V295.459Z" fill="#0C043F"/>
<path d="M571.849 295.459H488.486V550.983H571.849V295.459Z" fill="#0C043F"/>
<path d="M772.137 369.999C761.717 363.568 751.593 360.342 741.778 360.342C731.952 360.342 723.028 362.954 715.017 368.179C706.985 373.404 700.757 380.626 696.322 389.87C691.888 399.102 689.676 409.551 689.676 421.206C689.676 432.872 691.888 443.388 696.322 452.732C700.757 462.087 706.974 469.444 715.017 474.781C723.028 480.128 731.952 482.796 741.778 482.796C750.889 482.796 760.638 480.061 771.059 474.602C781.479 469.132 790.755 461.909 798.909 452.911L847.038 505.034C832.91 520.831 815.964 533.412 796.202 542.756C776.45 552.111 756.853 556.789 737.465 556.789C712.068 556.789 689.258 551.017 669.022 539.474C648.776 527.931 632.909 511.9 621.399 491.359C609.922 470.829 604.156 447.798 604.156 422.278C604.156 397.003 610.021 374.341 621.762 354.291C633.503 334.241 649.722 318.512 670.453 307.092C691.173 295.705 714.588 290 740.7 290C759.868 290 779.146 294.309 798.546 302.939C817.956 311.557 834.109 323.056 847.038 337.378L798.909 395.34C791.481 384.891 782.557 376.44 772.137 369.999Z" fill="#0C043F"/>
<path d="M865.176 865.158C864.938 865.159 864.724 865.135 864.485 865.087C863.508 864.893 862.648 864.33 862.073 863.47L829.642 814.94L797.165 847.517C796.144 848.556 794.62 848.881 793.284 848.393C791.924 847.881 790.967 846.628 790.819 845.151L775.466 701.045C775.318 699.617 775.933 698.236 777.073 697.419L777.454 697.146C778.594 696.33 780.071 696.226 781.289 696.887L906.222 762.774C907.511 763.459 908.302 764.811 908.284 766.289C908.265 767.766 907.412 769.124 906.128 769.744L864.672 789.817L896.604 838.866C897.754 840.635 897.31 843.026 895.622 844.238L867.318 864.461C866.653 864.907 865.915 865.156 865.176 865.158ZM830.203 805.062C830.322 805.061 830.465 805.061 830.584 805.085C831.681 805.204 832.683 805.792 833.306 806.75L866.12 855.87L888.293 840.053L856.001 790.414C855.379 789.48 855.208 788.299 855.49 787.214C855.772 786.129 856.531 785.215 857.506 784.744L895.966 766.11L783.659 706.853L797.459 836.408L827.61 806.154C828.298 805.462 829.226 805.065 830.203 805.062Z" fill="black"/>
<path d="M785.074 682.753C783.102 682.761 781.519 681.253 781.514 679.414L781.446 657.755C781.44 655.892 783.038 654.395 784.986 654.387C786.958 654.356 788.54 655.864 788.546 657.703L788.613 679.362C788.619 681.225 787.046 682.745 785.074 682.753Z" fill="black"/>
<path d="M768.052 687.129C766.82 687.134 765.634 686.534 764.965 685.465L753.444 666.74C752.452 665.137 753.038 663.086 754.736 662.147C756.434 661.209 758.605 661.759 759.596 663.362L771.118 682.087C772.109 683.69 771.524 685.741 769.826 686.68C769.284 686.985 768.669 687.127 768.052 687.129Z" fill="black"/>
<path d="M755.615 698.963C754.998 698.965 754.406 698.828 753.838 698.527L733.935 687.778C732.231 686.853 731.633 684.806 732.614 683.195C733.595 681.584 735.763 681.017 737.466 681.942L757.37 692.691C759.074 693.616 759.672 695.663 758.691 697.274C758.053 698.348 756.847 698.958 755.615 698.963Z" fill="black"/>
<path d="M751.132 715.063L728.205 715.144C726.233 715.151 724.625 713.666 724.618 711.803C724.612 709.94 726.209 708.444 728.156 708.437L751.083 708.356C753.056 708.349 754.639 709.857 754.645 711.697C754.652 713.536 753.079 715.056 751.132 715.063Z" fill="black"/>
<path d="M735.903 742.034C734.67 742.039 733.485 741.438 732.816 740.369C731.825 738.766 732.41 736.715 734.108 735.776L753.945 724.867C755.643 723.929 757.814 724.479 758.805 726.082C759.796 727.685 759.211 729.737 757.513 730.675L737.677 741.584C737.135 741.889 736.519 742.031 735.903 742.034Z" fill="black"/>
<path d="M814.608 698.726C813.375 698.731 812.19 698.13 811.521 697.062C810.53 695.459 811.115 693.407 812.814 692.469L832.65 681.56C834.348 680.621 836.519 681.172 837.51 682.774C838.501 684.377 837.916 686.429 836.218 687.368L816.382 698.277C815.84 698.558 815.224 698.724 814.608 698.726Z" fill="black"/>
<path d="M802.098 686.993C801.506 686.995 800.889 686.858 800.321 686.557C798.617 685.633 798.019 683.586 799 681.975L810.405 663.158C811.386 661.547 813.554 660.98 815.258 661.904C816.962 662.829 817.56 664.876 816.579 666.487L805.174 685.304C804.536 686.377 803.33 686.988 802.098 686.993Z" fill="black"/>
<path d="M540.038 1026C808.448 1026 1026.04 808.41 1026.04 540C1026.04 271.59 808.448 54 540.038 54C271.628 54 54.0381 271.59 54.0381 540C54.0381 808.41 271.628 1026 540.038 1026Z" stroke="#0C043F" stroke-width="100"/>
</svg>
